<?xml version="1.0" encoding="utf-8"?>
<!-- Generator: Adobe Illustrator 16.0.0, SVG Export Plug-In . SVG Version: 6.00 Build 0)  -->
<!DOCTYPE svg PUBLIC "-//W3C//DTD SVG 1.1//EN" "http://www.w3.org/Graphics/SVG/1.1/DTD/svg11.dtd">
<svg version="1.1" id="Layer_1" xmlns="http://www.w3.org/2000/svg" xmlns:xlink="http://www.w3.org/1999/xlink" x="0px" y="0px"
	 width="1000px" height="300px" viewBox="0 0 1000 300" style="enable-background:new 0 0 1000 300;" xml:space="preserve">
<g style="opacity:0.71;">
	<defs>
		<path id="SVGID_1_" style="opacity:0.71;" d="M41.1,107.8c0,3.4,2.8,6.2,6.3,6.2c3.4,0,6.2-2.8,6.2-6.3c0-3.4-2.8-6.2-6.3-6.2
			C43.9,101.6,41.1,104.4,41.1,107.8"/>
	</defs>
	<clipPath id="SVGID_2_">
		<use xlink:href="#SVGID_1_"  style="overflow:visible;"/>
	</clipPath>
	<defs>
		<filter id="Adobe_OpacityMaskFilter" filterUnits="userSpaceOnUse" x="34.9" y="95.4" width="24.9" height="24.9">
			<feColorMatrix  type="matrix" values="1 0 0 0 0  0 1 0 0 0  0 0 1 0 0  0 0 0 1 0"/>
		</filter>
	</defs>
	<mask maskUnits="userSpaceOnUse" x="34.9" y="95.4" width="24.9" height="24.9" id="SVGID_3_">
		<g style="filter:url(#Adobe_OpacityMaskFilter);">
			
				<radialGradient id="SVGID_4_" cx="101.4473" cy="550.2246" r="0.8299" gradientTransform="matrix(-317.7656 -315.5268 -315.5268 317.7656 206124 -142805)" gradientUnits="userSpaceOnUse">
				<stop  offset="0" style="stop-color:#FFFFFF"/>
				<stop  offset="1" style="stop-color:#000000"/>
			</radialGradient>
			<polygon style="clip-path:url(#SVGID_2_);fill:url(#SVGID_4_);" points="47.4,120.3 34.9,107.9 47.3,95.4 59.8,107.8 			"/>
		</g>
	</mask>
	
		<radialGradient id="SVGID_5_" cx="101.4473" cy="550.2246" r="0.8299" gradientTransform="matrix(-317.7656 -315.5268 -315.5268 317.7656 206124 -142805)" gradientUnits="userSpaceOnUse">
		<stop  offset="0" style="stop-color:#B1CDE7"/>
		<stop  offset="1" style="stop-color:#FFFFFF"/>
	</radialGradient>
	<polygon style="clip-path:url(#SVGID_2_);mask:url(#SVGID_3_);fill:url(#SVGID_5_);" points="47.4,120.3 34.9,107.9 47.3,95.4 
		59.8,107.8 	"/>
</g>
<path style="fill:#FFFFFF;" d="M132.3,114.7c4.2-6.2,0.3-5.2,0.3-5.2l-65.9,0.2l-14,0L7.6,110c0,0-3.9-1,0.3,5.2
	c4.2,6.2,6.8,7.8,6.9,17.2L15.4,273c0,0-3.9,3.3,10.4,3.2l42.8-0.2l5.9,0l41.2-0.1c14.3,0,10.4-3.3,10.4-3.3L125.6,132
	C125.5,122.5,128.1,120.9,132.3,114.7"/>
<rect x="30.5" y="161.7" transform="matrix(1 -3.491231e-003 3.491231e-003 1 -0.7391 0.2405)" style="fill:#F0E161;" width="76.1" height="100.2"/>
<g style="opacity:0.1;">
	<g>
		<defs>
			
				<rect id="SVGID_6_" x="14.7" y="150.8" transform="matrix(-1 3.532553e-003 -3.532553e-003 -1 141.7701 426.607)" width="111.7" height="125.3"/>
		</defs>
		<clipPath id="SVGID_7_">
			<use xlink:href="#SVGID_6_"  style="overflow:visible;"/>
		</clipPath>
		<path style="clip-path:url(#SVGID_7_);fill:#626262;" d="M126.1,272.6l-0.4-122L15.2,240.9l0.1,32.1c0,0-3.9,3.3,10.4,3.2
			l63.6-0.2l5.8,0l20.5-0.1C130,275.9,126.1,272.6,126.1,272.6"/>
	</g>
</g>
<path style="fill:#314A2A;" d="M63.4,161.8L109,30.9c0.9-2.7,3.9-4.1,6.6-3.2c2.7,0.9,4.1,3.9,3.2,6.6L74.4,161.9"/>
<line style="fill:none;stroke:#314A2A;stroke-width:0.5594;stroke-miterlimit:10;" x1="38" y1="181.5" x2="38.2" y2="250.9"/>
<line style="fill:none;stroke:#314A2A;stroke-width:0.5594;stroke-miterlimit:10;" x1="38.1" y1="189.7" x2="51.3" y2="189.6"/>
<line style="fill:none;stroke:#314A2A;stroke-width:0.5594;stroke-miterlimit:10;" x1="38.2" y1="215.6" x2="51.4" y2="215.6"/>
<line style="fill:none;stroke:#314A2A;stroke-width:0.5594;stroke-miterlimit:10;" x1="38.3" y1="241.6" x2="51.5" y2="241.6"/>
<g>
	<path style="fill:#DD5757;" d="M965,269.8l-220.5,0.8c-19.6,0.1-35.6-15.8-35.7-35.4l-0.2-43c-0.1-19.6,15.8-35.6,35.4-35.7
		l220.5-0.8c19.6-0.1,35.6,15.8,35.7,35.4l0.2,43C1000.5,253.8,984.6,269.8,965,269.8z M744.2,171.6c-11.3,0-20.4,9.2-20.3,20.5
		l0.2,43c0,11.2,9.2,20.4,20.5,20.3l220.5-0.8c11.3,0,20.4-9.2,20.3-20.5l-0.2-43c0-11.3-9.2-20.4-20.5-20.3L744.2,171.6z"/>
</g>
<path style="fill:#FFFFFF;" d="M795.8,89.1l-39.4,0.1c-3.9,0-7,3.2-7,7l0,3.7c0,3.9,3.2,7,7,7h0.1c-0.1,0.7-0.1,1.5-0.1,2.2
	l0.4,114.1c0,11,9,19.8,19.9,19.8c11,0,19.8-9,19.8-19.9L796.2,109c0-0.8-0.1-1.5-0.1-2.2c3.8-0.1,6.7-3.2,6.7-7l0-3.7
	C802.8,92.2,799.6,89.1,795.8,89.1"/>
<path style="fill:#242526;" d="M795.2,81.1c0,2.4-2,4.4-4.4,4.4l-29.5,0.1c-2.4,0-4.4-2-4.4-4.4c0-2.4,2-4.4,4.4-4.4l29.4-0.1
	C793.2,76.6,795.2,78.6,795.2,81.1"/>
<rect x="760.6" y="81.1" transform="matrix(1 -3.505758e-003 3.505758e-003 1 -0.2977 2.7212)" style="fill:#242526;" width="30.9" height="10.3"/>
<path style="fill:#FFFFFF;" d="M795.8,89.1l-39.4,0.1c-3.9,0-7,3.2-7,7l0,3.7c0,3.9,3.2,7,7,7h0.1c-0.1,0.7-0.1,1.5-0.1,2.2
	l0.4,114.1c0,11,9,19.8,19.9,19.8c11,0,19.8-9,19.8-19.9L796.2,109c0-0.8-0.1-1.5-0.1-2.2c3.8-0.1,6.7-3.2,6.7-7l0-3.7
	C802.8,92.2,799.6,89.1,795.8,89.1"/>
<path style="fill:#242526;" d="M795.2,81.1c0,2.4-2,4.4-4.4,4.4l-29.5,0.1c-2.4,0-4.4-2-4.4-4.4c0-2.4,2-4.4,4.4-4.4l29.4-0.1
	C793.2,76.6,795.2,78.6,795.2,81.1"/>
<rect x="760.6" y="81.1" transform="matrix(1 -3.505758e-003 3.505758e-003 1 -0.2977 2.7212)" style="fill:#242526;" width="30.9" height="10.3"/>
<path style="fill:#FBB15F;" d="M792.6,145.1l0.3,77.9c0,8.9-7.2,16.2-16.1,16.2c-8.9,0-16.2-7.2-16.2-16.1l-0.3-77.9"/>
<path style="fill:#FFFFFF;" d="M875.7,88.8L836.3,89c-3.9,0-7,3.2-7,7l0,3.7c0,3.9,3.2,7,7,7l0.1,0c-0.1,0.7-0.1,1.5-0.1,2.2
	l0.4,114.1c0,11,9,19.8,19.9,19.8c11,0,19.8-9,19.8-19.9l-0.4-114.1c0-0.8-0.1-1.5-0.1-2.2c3.7-0.1,6.7-3.2,6.7-7l0-3.7
	C882.7,92,879.6,88.8,875.7,88.8"/>
<path style="fill:#242526;" d="M875.1,80.8c0,2.4-2,4.4-4.4,4.4l-29.4,0.1c-2.4,0-4.4-2-4.4-4.4c0-2.4,2-4.4,4.4-4.4l29.4-0.1
	C873.1,76.4,875.1,78.3,875.1,80.8"/>
<rect x="840.6" y="80.8" transform="matrix(1 -3.584942e-003 3.584942e-003 1 -0.3028 3.0693)" style="fill:#242526;" width="30.9" height="10.3"/>
<path style="fill:#F0E161;" d="M872.5,120.3l0.4,102.4c0,8.9-7.2,16.2-16.1,16.2c-8.9,0-16.2-7.2-16.2-16.1l-0.4-102.4"/>
<path style="fill:#FFFFFF;" d="M955.7,88.6l-39.4,0.1c-3.9,0-7,3.2-7,7l0,3.7c0,3.9,3.2,7,7,7h0.1c-0.1,0.7-0.1,1.5-0.1,2.2
	l0.4,114.1c0,11,9,19.8,19.9,19.8c11,0,19.8-9,19.8-19.9l-0.4-114.1c0-0.8-0.1-1.5-0.1-2.2c3.8-0.1,6.7-3.2,6.7-7l0-3.7
	C962.7,91.7,959.6,88.5,955.7,88.6"/>
<path style="fill:#242526;" d="M955.1,80.5c0,2.4-2,4.4-4.4,4.4L921.3,85c-2.4,0-4.4-2-4.4-4.4c0-2.4,2-4.4,4.4-4.4l29.4-0.1
	C953.1,76.1,955.1,78.1,955.1,80.5"/>
<rect x="920.5" y="80.6" transform="matrix(1 -3.537900e-003 3.537900e-003 1 -0.2974 3.312)" style="fill:#242526;" width="30.9" height="10.3"/>
<path style="fill:#2B8590;" d="M952.7,181.2l0.1,41.2c0,8.9-7.2,16.2-16.1,16.2c-8.9,0-16.2-7.2-16.2-16.1l-0.1-41.2"/>
<path style="fill:#F0E161;" d="M56.5,107.9c0-2.8,2.2-5,5-5.1c2.8,0,5,2.2,5.1,5c0,2.8-2.2,5-5,5.1C58.8,113,56.5,110.7,56.5,107.9"
	/>
<path style="fill:#F0E161;" d="M24.8,36.7c0-8.3,6.7-15.1,15-15.1c8.3,0,15.1,6.7,15.1,15c0,8.3-6.7,15.1-15,15.1
	C31.6,51.7,24.8,45,24.8,36.7"/>
<path style="fill:#F3FAFB;" d="M28.1,36.8c0,0,0-0.3-0.1-0.9c0-0.3,0-0.6,0-1c0-0.4,0-0.8,0.1-1.3c0.1-0.5,0.2-1,0.4-1.5
	c0.1-0.5,0.4-1.1,0.6-1.6c0.3-0.5,0.6-1.1,1-1.6c0.4-0.5,0.8-1,1.2-1.5c0.5-0.4,0.9-0.9,1.5-1.2c0.5-0.4,1.1-0.7,1.6-1
	c0.6-0.2,1.1-0.5,1.6-0.7c0.5-0.2,1-0.3,1.5-0.4c0.5-0.1,0.9-0.1,1.3-0.1c0.4,0,0.7,0,1,0c0.5,0,0.9,0.1,0.9,0.1s-0.3,0.1-0.8,0.2
	c-0.5,0.1-1.3,0.3-2.2,0.6c-0.4,0.1-0.9,0.3-1.4,0.5c-0.5,0.2-0.9,0.5-1.4,0.7c-0.5,0.3-1,0.6-1.4,1c-0.5,0.3-0.9,0.8-1.3,1.2
	c-0.4,0.4-0.8,0.9-1.2,1.3c-0.4,0.5-0.7,1-1,1.4c-0.2,0.5-0.5,1-0.7,1.5c-0.2,0.5-0.4,0.9-0.5,1.4c-0.3,0.9-0.5,1.6-0.5,2.2
	C28.1,36.5,28.1,36.8,28.1,36.8"/>
<path style="fill:#F0E161;" d="M50.3,67.1c0-5,4-9,9-9c5,0,9,4,9,9c0,5-4,9-9,9C54.3,76.1,50.3,72,50.3,67.1"/>
<path style="fill:#F3FAFB;" d="M52.2,67.1c0,0,0-0.2,0-0.5c0-0.2,0-0.3,0-0.6c0-0.2,0-0.5,0.1-0.7c0-0.3,0.1-0.5,0.2-0.8
	c0.1-0.3,0.2-0.6,0.4-0.9c0.2-0.3,0.3-0.6,0.5-0.9c0.2-0.3,0.4-0.6,0.7-0.8c0.3-0.2,0.5-0.5,0.8-0.7c0.3-0.2,0.6-0.4,0.9-0.5
	c0.3-0.1,0.6-0.3,0.9-0.4c0.3-0.1,0.6-0.2,0.8-0.2C57.8,60,58,60,58.2,60c0.2,0,0.4,0,0.6,0c0.3,0,0.5,0,0.5,0s-0.2,0-0.5,0.1
	c-0.3,0-0.7,0.1-1.2,0.3c-0.2,0.1-0.5,0.2-0.8,0.3c-0.3,0.1-0.5,0.3-0.8,0.4c-0.3,0.2-0.5,0.3-0.8,0.5c-0.3,0.2-0.5,0.4-0.7,0.6
	c-0.2,0.2-0.5,0.5-0.6,0.7c-0.2,0.3-0.4,0.5-0.5,0.8c-0.1,0.3-0.3,0.5-0.4,0.8c-0.1,0.3-0.2,0.5-0.3,0.8c-0.2,0.5-0.3,0.9-0.3,1.2
	C52.3,66.9,52.2,67.1,52.2,67.1"/>
<path style="fill:#F0E161;" d="M43.2,88.7c0-3.3,2.7-6,6-6.1c3.3,0,6,2.7,6.1,6c0,3.3-2.7,6-6,6.1C45.9,94.7,43.2,92.1,43.2,88.7"/>
<path style="fill:#F3FAFB;" d="M44.5,88.7c0,0,0-0.1,0-0.3c0-0.1,0-0.2,0-0.4c0-0.1,0-0.3,0.1-0.5c0-0.2,0.1-0.4,0.1-0.6
	c0.1-0.2,0.2-0.4,0.2-0.6c0.1-0.2,0.2-0.4,0.4-0.6c0.1-0.2,0.3-0.4,0.5-0.6c0.2-0.2,0.4-0.3,0.6-0.5c0.2-0.2,0.4-0.3,0.6-0.4
	c0.2-0.1,0.4-0.2,0.6-0.2c0.2-0.1,0.4-0.1,0.6-0.1c0.2,0,0.3,0,0.5-0.1c0.1,0,0.3,0,0.4,0c0.2,0,0.3,0,0.3,0s-0.1,0-0.3,0.1
	c-0.2,0-0.5,0.1-0.8,0.2c-0.2,0.1-0.3,0.1-0.5,0.2c-0.2,0.1-0.3,0.2-0.5,0.3c-0.2,0.1-0.4,0.2-0.5,0.4c-0.2,0.1-0.3,0.3-0.5,0.4
	c-0.1,0.2-0.3,0.3-0.4,0.5c-0.1,0.2-0.2,0.4-0.4,0.5c-0.1,0.2-0.2,0.4-0.3,0.5c-0.1,0.2-0.1,0.3-0.2,0.5c-0.1,0.3-0.2,0.6-0.2,0.8
	C44.5,88.6,44.5,88.7,44.5,88.7"/>
<path style="fill:#010101;" d="M609,105.8c0,2.5-2,4.5-4.5,4.5c-2.5,0-4.5-2-4.5-4.5c0-2.5,2-4.5,4.5-4.5
	C607,101.3,609,103.3,609,105.8z"/>
<g>
	<path style="fill:#FFE67E;" d="M636.1,93.6c0,0-5.8-9.5-20.2-9.5c-14.3,0-20.2,9.5-20.2,9.5v99.9l40.3-51.6V93.6z M615.9,98.8
		c-2.5,0-4.5-2-4.5-4.5c0-2.5,2-4.5,4.5-4.5c2.5,0,4.5,2,4.5,4.5C620.4,96.8,618.4,98.8,615.9,98.8z"/>
	<polygon style="fill:#F9DD68;" points="595.7,193.5 595.7,271.4 636.1,271.4 636.1,141.8 	"/>
	<g>
		<rect x="619.8" y="112.5" style="fill:#67615A;" width="16.3" height="2.2"/>
		<rect x="619.8" y="126.2" style="fill:#67615A;" width="16.3" height="2.2"/>
		<rect x="628.6" y="119.3" style="fill:#67615A;" width="7.5" height="2.2"/>
		<rect x="628.6" y="133.9" style="fill:#67615A;" width="7.5" height="2.2"/>
		<rect x="619.8" y="141.8" style="fill:#67615A;" width="16.3" height="2.2"/>
		<rect x="619.8" y="155.5" style="fill:#67615A;" width="16.3" height="2.2"/>
		<rect x="628.6" y="148.6" style="fill:#67615A;" width="7.5" height="2.2"/>
		<rect x="628.6" y="163.2" style="fill:#67615A;" width="7.5" height="2.2"/>
		<rect x="619.8" y="170.6" style="fill:#67615A;" width="16.3" height="2.2"/>
		<rect x="619.8" y="184.2" style="fill:#67615A;" width="16.3" height="2.2"/>
		<rect x="628.6" y="177.4" style="fill:#67615A;" width="7.5" height="2.2"/>
		<rect x="628.6" y="191.9" style="fill:#67615A;" width="7.5" height="2.2"/>
		<rect x="619.8" y="200.9" style="fill:#67615A;" width="16.3" height="2.2"/>
		<rect x="619.8" y="214.5" style="fill:#67615A;" width="16.3" height="2.2"/>
		<rect x="628.6" y="207.7" style="fill:#67615A;" width="7.5" height="2.2"/>
		<rect x="628.6" y="222.3" style="fill:#67615A;" width="7.5" height="2.2"/>
		<rect x="619.8" y="231.6" style="fill:#67615A;" width="16.3" height="2.2"/>
		<rect x="619.8" y="245.2" style="fill:#67615A;" width="16.3" height="2.2"/>
		<rect x="628.6" y="238.4" style="fill:#67615A;" width="7.5" height="2.2"/>
		<rect x="628.6" y="252.9" style="fill:#67615A;" width="7.5" height="2.2"/>
	</g>
</g>
<g>
	<path style="fill:#FFE67E;" d="M552.8,151.7c2-2.4,3.6-1.8,3.6,1.3v84.7c0,1.8-0.9,3.4-2.2,4.5l26.2,26.2c0.3-0.7,0.5-1.5,0.5-2.3
		V80.4c0-3.1-1.6-3.7-3.6-1.3l-84.4,101.7l19.5,19.5L552.8,151.7z"/>
	<path style="fill:#F9DD68;" d="M554.2,242.2c-1,0.8-2.2,1.3-3.5,1.3h-68.4c-3.1,0-4.1-2-2.1-4.4l32.1-38.7l-19.5-19.5l-71.8,86.5
		c-2,2.4-1.1,4.4,2.1,4.4h152.1c2.3,0,4.3-1.4,5.2-3.4L554.2,242.2z"/>
	<g>
		
			<rect x="455.4" y="227.9" transform="matrix(0.7698 0.6383 -0.6383 0.7698 252.3927 -242.2521)" style="fill:#67615A;" width="13.3" height="1.8"/>
		<polygon style="fill:#67615A;" points="473.7,225.2 463.5,216.7 464.6,215.3 474.8,223.8 		"/>
		
			<rect x="459.8" y="221.3" transform="matrix(0.7698 0.6383 -0.6383 0.7698 248.3818 -244.2632)" style="fill:#67615A;" width="6.1" height="1.8"/>
		
			<rect x="467.3" y="212.2" transform="matrix(0.7699 0.6382 -0.6382 0.7699 244.2482 -251.1526)" style="fill:#67615A;" width="6.1" height="1.8"/>
		
			<rect x="470.6" y="209.5" transform="matrix(0.7696 0.6385 -0.6385 0.7696 244.3191 -256.275)" style="fill:#67615A;" width="13.3" height="1.8"/>
		
			<rect x="477.7" y="201" transform="matrix(0.7699 0.6382 -0.6382 0.7699 240.3102 -262.679)" style="fill:#67615A;" width="13.3" height="1.8"/>
		
			<rect x="475" y="202.9" transform="matrix(0.7699 0.6382 -0.6382 0.7699 240.0942 -258.1797)" style="fill:#67615A;" width="6.1" height="1.8"/>
		
			<rect x="482.6" y="193.8" transform="matrix(0.77 0.6381 -0.6381 0.77 235.9677 -265.0682)" style="fill:#67615A;" width="6.1" height="1.8"/>
		
			<rect x="485.6" y="191.5" transform="matrix(0.7699 0.6381 -0.6381 0.7699 236.0195 -269.8385)" style="fill:#67615A;" width="13.3" height="1.8"/>
		
			<rect x="492.7" y="182.9" transform="matrix(0.7698 0.6383 -0.6383 0.7698 232.3155 -276.4001)" style="fill:#67615A;" width="13.3" height="1.8"/>
		
			<rect x="490" y="184.9" transform="matrix(0.7698 0.6383 -0.6383 0.7698 232.095 -271.8969)" style="fill:#67615A;" width="6.1" height="1.8"/>
		<polygon style="fill:#67615A;" points="502.3,179.4 497.6,175.5 498.8,174.1 503.5,178 		"/>
		
			<rect x="501.4" y="172.5" transform="matrix(0.7698 0.6383 -0.6383 0.7698 227.6202 -284.3607)" style="fill:#67615A;" width="13.3" height="1.8"/>
		
			<rect x="508.5" y="163.9" transform="matrix(0.77 0.6381 -0.6381 0.77 223.656 -290.7691)" style="fill:#67615A;" width="13.3" height="1.8"/>
		<polygon style="fill:#67615A;" points="510.6,169.4 505.9,165.5 507,164.2 511.7,168 		"/>
		<polygon style="fill:#67615A;" points="518.1,160.3 513.4,156.4 514.6,155 519.3,158.9 		"/>
		<polygon style="fill:#67615A;" points="528.5,159 518.3,150.6 519.4,149.2 529.6,157.7 		"/>
		<polygon style="fill:#67615A;" points="535.6,150.5 525.4,142 526.5,140.6 536.7,149.1 		"/>
		<polygon style="fill:#67615A;" points="526.5,150.2 521.8,146.3 523,144.9 527.7,148.8 		"/>
		
			<rect x="529.2" y="137.5" transform="matrix(0.7699 0.6382 -0.6382 0.7699 210.8539 -307.8518)" style="fill:#67615A;" width="6.1" height="1.8"/>
	</g>
</g>
<g>
	<path style="fill:#CBD8D9;" d="M278.6,62.6c-7.2,0-13,5.8-13,13v13.9c0,7.2,5.8,13,13,13c7.2,0,13-5.8,13-13V75.6
		C291.6,68.4,285.8,62.6,278.6,62.6z M278.6,76.1c-2.3,0-4.1-1.9-4.1-4.1c0-2.3,1.9-4.1,4.1-4.1c2.3,0,4.1,1.9,4.1,4.1
		C282.7,74.2,280.8,76.1,278.6,76.1z"/>
	<path style="fill:#538F99;" d="M208.8,86.6c-3.8,0-6.9,3.1-6.9,6.9v94.1L314.3,86.6H208.8z"/>
	<path style="fill:#4B828E;" d="M355.5,93.6c0-3.8-3.1-6.9-6.9-6.9h-34.3L201.9,187.7v81.8c0,3.8,3.1,6.9,6.9,6.9h52.6l94.1-79.8
		V93.6z"/>
	<path style="fill:#45777F;" d="M261.4,276.5h87.2c3.8,0,6.9-3.1,6.9-6.9v-72.8L261.4,276.5z"/>
	<polygon style="fill:#F0EFEF;" points="219.8,217.5 245.3,242.9 337.3,242.9 337.3,108 	"/>
	<polygon style="fill:#FFFFFF;" points="337.3,97.6 218.6,97.6 218.6,216.3 219.8,217.5 337.3,108 	"/>
	<polygon style="opacity:0.2;fill:#010101;" points="250.9,212.3 218.6,216.3 245.3,242.9 	"/>
	<polygon style="fill:#FFFFFF;" points="245.3,216.3 218.6,216.3 245.3,242.9 	"/>
	<polygon style="fill:#CBD8D9;" points="245.7,79.4 245.7,104.6 247.2,104.6 309.2,79.4 	"/>
	<polygon style="fill:#BACACC;" points="247.2,104.6 311.7,104.6 311.7,79.4 309.2,79.4 	"/>
	<g>
		<path style="fill:#7B7B7B;" d="M327.9,139.3c0,0.5-1,1-2.2,1h-95.5c-1.2,0-2.2-0.4-2.2-1l0,0c0-0.5,1-1,2.2-1h95.5
			C326.9,138.3,327.9,138.7,327.9,139.3L327.9,139.3z"/>
		<path style="fill:#7B7B7B;" d="M327.9,143.8c0,0.5-1,1-2.2,1h-95.5c-1.2,0-2.2-0.4-2.2-1l0,0c0-0.5,1-1,2.2-1h95.5
			C326.9,142.9,327.9,143.3,327.9,143.8L327.9,143.8z"/>
		<path style="fill:#7B7B7B;" d="M327.9,148.4c0,0.5-1,1-2.2,1h-95.5c-1.2,0-2.2-0.4-2.2-1l0,0c0-0.5,1-1,2.2-1h95.5
			C326.9,147.5,327.9,147.9,327.9,148.4L327.9,148.4z"/>
		<path style="fill:#7B7B7B;" d="M327.9,153c0,0.5-1,1-2.2,1h-95.5c-1.2,0-2.2-0.4-2.2-1l0,0c0-0.5,1-1,2.2-1h95.5
			C326.9,152,327.9,152.5,327.9,153L327.9,153z"/>
		<path style="fill:#7B7B7B;" d="M327.9,157.6c0,0.5-1,1-2.2,1h-95.5c-1.2,0-2.2-0.4-2.2-1l0,0c0-0.5,1-1,2.2-1h95.5
			C326.9,156.6,327.9,157,327.9,157.6L327.9,157.6z"/>
		<path style="fill:#7B7B7B;" d="M327.9,162.2c0,0.5-1,1-2.2,1h-95.5c-1.2,0-2.2-0.4-2.2-1l0,0c0-0.5,1-1,2.2-1h95.5
			C326.9,161.2,327.9,161.6,327.9,162.2L327.9,162.2z"/>
	</g>
	<g>
		<path style="fill:#7B7B7B;" d="M327.9,170.1c0,0.5-1,1-2.2,1h-95.5c-1.2,0-2.2-0.4-2.2-1l0,0c0-0.5,1-1,2.2-1h95.5
			C326.9,169.2,327.9,169.6,327.9,170.1L327.9,170.1z"/>
		<path style="fill:#7B7B7B;" d="M327.9,174.7c0,0.5-1,1-2.2,1h-95.5c-1.2,0-2.2-0.4-2.2-1l0,0c0-0.5,1-1,2.2-1h95.5
			C326.9,173.7,327.9,174.2,327.9,174.7L327.9,174.7z"/>
		<path style="fill:#7B7B7B;" d="M327.9,179.3c0,0.5-1,1-2.2,1h-95.5c-1.2,0-2.2-0.4-2.2-1l0,0c0-0.5,1-1,2.2-1h95.5
			C326.9,178.3,327.9,178.8,327.9,179.3L327.9,179.3z"/>
		<path style="fill:#7B7B7B;" d="M327.9,183.9c0,0.5-1,1-2.2,1h-95.5c-1.2,0-2.2-0.4-2.2-1l0,0c0-0.5,1-1,2.2-1h95.5
			C326.9,182.9,327.9,183.3,327.9,183.9L327.9,183.9z"/>
		<path style="fill:#7B7B7B;" d="M327.9,188.4c0,0.5-1,1-2.2,1h-95.5c-1.2,0-2.2-0.4-2.2-1l0,0c0-0.5,1-1,2.2-1h95.5
			C326.9,187.5,327.9,187.9,327.9,188.4L327.9,188.4z"/>
		<path style="fill:#7B7B7B;" d="M327.9,193c0,0.5-1,1-2.2,1h-95.5c-1.2,0-2.2-0.4-2.2-1l0,0c0-0.5,1-1,2.2-1h95.5
			C326.9,192.1,327.9,192.5,327.9,193L327.9,193z"/>
	</g>
</g>
</svg>
