<?xml version="1.0" encoding="utf-8"?>
<!-- Generator: Adobe Illustrator 16.0.0, SVG Export Plug-In . SVG Version: 6.00 Build 0)  -->
<!DOCTYPE svg PUBLIC "-//W3C//DTD SVG 1.1//EN" "http://www.w3.org/Graphics/SVG/1.1/DTD/svg11.dtd">
<svg version="1.1" id="Layer_1" xmlns="http://www.w3.org/2000/svg" xmlns:xlink="http://www.w3.org/1999/xlink" x="0px" y="0px"
	 width="500px" height="500px" viewBox="0 0 500 500" style="enable-background:new 0 0 500 500;" xml:space="preserve">
<g>
	<path style="fill:#EBEBEB;" d="M300.7,138.2V37.1c8.7-3.5,13.9-7.8,13.9-12.4c0-11-28.6-18.9-64.6-19.5
		c-36.1,0.6-64.6,8.5-64.6,19.5c0,4.7,5.2,9,13.8,12.4v101.1c-84.7,171.4-365.3,352.4,50.8,352.4
		C665.9,490.6,385.4,309.6,300.7,138.2z"/>
	<path style="fill:#63BCCC;" d="M354.2,278.5c-9.9-11.6-46.3-20.7-102.9-21.7c-56.6,1-92.9,10-102.9,21.7
		c-50.6,70.8-109.1,137.4-48.2,163.3c34.9,14.8,73.4,18.8,151.1,18.8c77.7,0,116.2-3.9,151.1-18.8
		C463.3,415.8,404.7,349.2,354.2,278.5z"/>
	<path style="fill:#41ADC0;" d="M372.7,300.2c-5.6-7.6-11.2-15.3-16.9-23.2c-11.2-13.1-50.3-21.5-104.6-22.4
		c-54.2,0.9-93.3,9.3-104.6,22.6c-5.5,7.8-11.2,15.5-16.7,23.1c-33.2,45.5-64.6,88.4-56.6,117.6c3.1,11.3,11.6,19.8,26,25.9
		c33.7,14.3,70.6,18.9,152,18.9c81.3,0,118.3-4.6,152-18.9c14.4-6.1,22.9-14.6,26-25.9C437.4,388.6,406,345.7,372.7,300.2z
		 M315.7,289.1c-61.8,27.2-254.6-18.9-85.9-24.2C276.3,263.4,333.9,281,315.7,289.1z M382.7,417.8c-2.7,9.9,4.3,36.5-131.4,40.4
		c-80.6,2.3-117.2-4.5-150.2-18.6c-13.1-5.6-20.8-13.1-23.5-23c-7.5-27.1,23.3-69.2,55.9-113.8c5.2-7.1,10.5-14.3,15.5-21.4
		c34.6,29.9,151.1,26.3,174.8,18C328.4,297.9,390.1,390.7,382.7,417.8z"/>
	<path style="fill:#32A8BD;" d="M372.7,300.2c-5.6-7.6-11.2-15.3-16.9-23.2c-0.2-0.3-0.5-0.5-0.7-0.8c2.3,2.9-0.6,6.5-2.9,8.4
		c-16.8,13.8-68.6,19-78,18.9c-0.7,0.3-2.8,0.4-2.1,0.7c8.6,2.9,46.6,0.5,67.9-4.4c0,0,25.7-0.5,55.1,39.2c6.5,8.8,25.9,35,25.9,35
		C420.8,371.8,406,345.7,372.7,300.2z"/>
	<path style="fill:#9B9A9B;" d="M407.8,465.6c-32.4,10.8-83.3,10.6-157.9,16.8c-135.5,11.2-208-39.4-214.1-44.7
		c-2.6-2.2-4.2-6-6-8.7c8.7,39.6,68,64.7,220.1,64.7c136.9,0,203.1-20.9,218.5-59.9C466.8,435.8,410.5,466.1,407.8,465.6z"/>
	<path style="fill:#D9DAD8;" d="M303.7,144.1c-0.2-4.1-0.4-8.5-0.9-13.2l-0.3-81.1c14.4-5.6,40.3-46.1-56.9-44.5
		c-85.8,1.3-66.6,37.4-48.6,45.5c0,0.2,0,0.3-0.1,0.3v79.8c-0.7,5.3-1.5,10.7-2.1,15.7c-89.3,168.9-354.2,344.1,55,344.1
		C661.2,490.6,391.7,313.7,303.7,144.1z M249.9,479.3c-376.5,0-142.3-153.9-51.9-312.5c1.6-2.3,11.5-22.5,14.3-29
		c0,0,2.5-78.5,0-83.8c0,0,43.9,6.6,73.6,0.2c1.9,21.6,1,68,1.5,80.9c5.3,16.8,9.1,25.4,11.7,28.1
		C385.4,325.7,629.9,479.3,249.9,479.3z"/>
	<g>
		<path style="fill:#E6E6E6;" d="M305.1,21.7c-2.7-6.9-25.7-12.2-53.6-12.2c-0.5,0-1,0-1.6,0C277.4,9.7,300.1,14.9,305.1,21.7z"/>
		<path style="fill:#E6E6E6;" d="M197.7,23.1c0,7.5,24.1,13.6,53.9,13.6c29.7,0,53.9-6.1,53.9-13.6c0-0.5-0.1-0.9-0.3-1.4
			c-5-6.8-27.7-12-55.1-12.2C221,9.7,197.7,15.7,197.7,23.1z"/>
	</g>
	<path style="fill:#C7C5C4;" d="M290,32.3c0,3-19,5.5-42.4,5.5c-23.4,0-42.4-2.5-42.4-5.5c0-3,19-5.5,42.4-5.5
		C271.1,26.8,290,29.2,290,32.3z"/>
	<path style="fill:#F2F2F2;" d="M304.5,20.7c0.2,0.4,0.9,2,0.9,2.4c0,7.5-24,13.6-53.7,13.6c-29.7,0-53.9-6.1-53.9-13.6
		c0-7.4,23.3-13.4,52.3-13.6c-0.5,0-1,0-1.5,0c-31.9,0-57.7,6.8-57.7,15.1c0,8.3,25.9,15.1,57.7,15.1c31.9,0,57.7-6.8,57.7-15.1
		C306.3,23.1,305.2,21.6,304.5,20.7z"/>
	<path style="opacity:0.5;fill:#FFFFFF;" d="M264.8,156.6c17.7-2,12.9-6.3,6.4-5.1c-12.1,2.4-43.7,3.2-48.5-5.4l-0.9-90.9l-9.6-1.2
		l0.2,83.7c0,0-139.2,200.3-139.8,201.4c-14.2,20.3-47.1,73.8-17.9,101.5c35.9,34.1,125.3,40.7,217.9,38.3
		c22.8,2.8-219.2-11.6-173.6-108.5C125.6,314.3,212.5,162.3,264.8,156.6z"/>
	<path style="fill:#FFFFFF;" d="M212.4,54l4,0.5v91.7c0,0,4.6,9.7,16.6,9.7c0,0,13.3,0.5,0,5.1c0,0-16.9,1.6-20.5-8.3
		c0,0-97.8,135-105.1,136.4c0,0,87.6-126.1,102.9-148.2L212.4,54z"/>
</g>
</svg>
